<svg xmlns="http://www.w3.org/2000/svg" viewBox="0 0 414.89592 239.35011"><path d="M128.522,121.14224c-.75092.35027-4.69325,4.67025-8.63557,9.45725l-7.32146,8.99022v28.83877c0,28.13824.09386,28.95553,2.065,31.29063,1.8773,2.21837,3.19141,2.33511,19.24229,2.33511,9.48035,0,17.17728.2335,17.17728.467a86.18435,86.18435,0,0,1-5.3503,7.00537l-5.44416,6.53834H128.33424c-16.05089,0-15.76929-.35027-15.76929,19.03125v14.361l7.88465,9.574,7.88464,9.574H269.31935v46.70245h-120.898l-.37543-8.05617c-.56316-12.72642-.84478-12.95993-17.83433-12.95993-18.773,0-17.6466-1.63458-17.6466,25.45285V340.527l7.88465,9.574,7.88465,9.574H289.21869l7.88465-9.574,7.88466-9.574V234.51245l-7.41534-9.22375-7.41533-9.22374H202.48751L186.34276,196.45c-8.82331-10.85832-17.6466-21.36638-19.52391-23.58474-1.97116-2.10162-3.56686-4.787-3.56686-6.07132,0-1.98485,2.15889-2.10161,52.9398-2.10161h52.93984l.37543,8.05617c.56315,12.72643.84478,12.95993,18.20978,12.95993,18.49142,0,17.27114,1.75133,17.27114-25.56959V139.70646l-7.79078-9.69076-7.79079-9.69076-79.78516.11676C165.78634,120.4417,129.2729,120.792,128.522,121.14224Z" transform="translate(-112.55204 -120.32494)"/><path d="M325.63825,121.84277c-2.72208,1.63459-3.56687,4.90376-3.66073,14.01074-.09386,8.87346,1.408,12.95993,7.79079,20.6658l5.25643,6.30483V354.888l2.4405,2.3351c2.34661,2.33511,3.66073,2.45188,22.903,2.45188s20.5564-.11675,22.903-2.45188l2.44049-2.45188-.18772-69.70342-.28158-69.70341-6.75827-9.22375-6.85211-9.22374V164.69229h30.97541v42.616c0,51.83973-1.408,47.28625,14.83067,47.28625h11.076L457.894,305.96724c16.14476,28.255,30.13064,51.95647,31.06932,52.54026.93865.70054,9.10488,1.16756,18.11593,1.16756,16.05091,0,16.33249,0,18.49143-2.80215a7.886,7.886,0,0,0,1.68956-5.6043c-.28158-1.51784-13.42269-26.97066-29.28585-56.74349-18.58526-34.67656-28.72266-54.75863-28.44105-56.04294.18772-1.0508,13.32883-25.91986,29.192-55.1089,15.7693-29.189,28.72266-53.94134,28.72266-54.99211a11.70256,11.70256,0,0,0-1.78345-4.67024c-1.78342-2.68539-2.25275-2.80215-18.11593-3.15242-11.73311-.23351-16.80182.11676-18.39752,1.16756-1.12637.81729-12.85948,20.43233-26.09444,43.55s-24.40489,42.149-24.87421,42.38248-.8448-16.11236-.8448-40.86465c0-22.65069-.37544-41.7987-.7509-42.49923-1.97117-3.7362-4.78711-3.96971-56.69439-3.96971C340.37506,120.325,327.4217,120.67522,325.63825,121.84277Z" transform="translate(-112.55204 -120.32494)"/></svg>